# xmcd
#
# Track frame offsets:
#	150
#	27190
#	54200
#	85015
#	119100
#	147015
#	175717
#	198105
#	221360
#	232430
#	277252
#
# Disc length: 4105 seconds
#
# Revision: 0
# Processed by: cddbd v1.4PL0 Copyright (c) Steve Scherf et al.
# Submitted via: audiograbber 1.82.01
#
DISCID=9c10070b
DTITLE=clapton, eric - 1992 - 12-02 live at the albert hall cd 1
DYEAR=1992
DGENRE=Blues
TTITLE0=white room
TTITLE1=pretending
TTITLE2=anything for your love
TTITLE3=running on faith
TTITLE4=my father's eyes
TTITLE5=another love
TTITLE6=when the circus left town
TTITLE7=tears in heaven
TTITLE8=signe
TTITLE9=before you accuse me
TTITLE10=tearing us apart
EXTD=
EXTT0=
EXTT1=
EXTT2=
EXTT3=
EXTT4=
EXTT5=
EXTT6=
EXTT7=
EXTT8=
EXTT9=
EXTT10=
PLAYORDER=
